<svg width="212" height="212" viewBox="0 0 212 212" fill="none" xmlns="http://www.w3.org/2000/svg">
<path d="M106 212C47.4562 212 0 164.544 0 106C0 47.4562 47.4562 0 106 0C164.544 0 212 47.4562 212 106C212 164.544 164.544 212 106 212ZM106 190.8C128.49 190.8 150.06 181.866 165.963 165.963C181.866 150.06 190.8 128.49 190.8 106C190.8 83.5096 181.866 61.9404 165.963 46.0373C150.06 30.1343 128.49 21.2 106 21.2C83.5096 21.2 61.9404 30.1343 46.0373 46.0373C30.1343 61.9404 21.2 83.5096 21.2 106C21.2 128.49 30.1343 150.06 46.0373 165.963C61.9404 181.866 83.5096 190.8 106 190.8ZM142.528 84.4608L84.4608 142.528C78.2763 138.881 73.119 133.724 69.4724 127.539L127.539 69.4724C133.724 73.119 138.881 78.2763 142.528 84.4608Z" fill="url(#paint0_linear_3014_101)"/>
<defs>
<linearGradient id="paint0_linear_3014_101" x1="106" y1="0" x2="106" y2="212" gradientUnits="userSpaceOnUse">
<stop stop-color="#15171F"/>
<stop offset="0.245192" stop-color="#15171F"/>
</linearGradient>
</defs>
</svg>
