<svg width="1266" height="302" viewBox="0 0 1266 302" fill="none" xmlns="http://www.w3.org/2000/svg">
<path d="M265.944 77.04H297.799V99.2H298.353C302.046 91.444 307.217 85.1653 313.865 80.364C320.513 75.5627 328.269 73.162 337.133 73.162C338.426 73.162 339.811 73.2543 341.288 73.439C342.765 73.439 344.058 73.6237 345.166 73.993V104.463C342.95 103.909 341.011 103.54 339.349 103.355C337.872 103.17 336.394 103.078 334.917 103.078C327.346 103.078 321.252 104.463 316.635 107.233C312.018 110.003 308.417 113.327 305.832 117.205C303.247 121.083 301.492 125.053 300.569 129.116C299.646 133.179 299.184 136.41 299.184 138.811V210H265.944V77.04ZM455.6 130.224C455.6 125.977 454.954 121.914 453.661 118.036C452.553 114.158 450.707 110.742 448.121 107.787C445.536 104.832 442.212 102.524 438.149 100.862C434.271 99.0153 429.655 98.092 424.299 98.092C414.327 98.092 405.833 101.139 398.815 107.233C391.983 113.142 388.197 120.806 387.458 130.224H455.6ZM488.84 145.182C488.84 146.659 488.84 148.137 488.84 149.614C488.84 151.091 488.748 152.569 488.563 154.046H387.458C387.828 158.847 389.028 163.279 391.059 167.342C393.275 171.22 396.138 174.636 399.646 177.591C403.155 180.361 407.125 182.577 411.557 184.239C415.989 185.901 420.606 186.732 425.407 186.732C433.717 186.732 440.735 185.255 446.459 182.3C452.184 179.161 456.893 174.913 460.586 169.558L482.746 187.286C469.635 205.014 450.614 213.878 425.684 213.878C415.343 213.878 405.833 212.308 397.153 209.169C388.474 205.845 380.903 201.228 374.439 195.319C368.161 189.41 363.175 182.208 359.481 173.713C355.973 165.034 354.218 155.246 354.218 144.351C354.218 133.64 355.973 123.945 359.481 115.266C363.175 106.402 368.161 98.923 374.439 92.829C380.718 86.5503 388.105 81.749 396.599 78.425C405.279 74.9163 414.604 73.162 424.576 73.162C433.81 73.162 442.304 74.7317 450.06 77.871C458.001 80.8257 464.834 85.35 470.558 91.444C476.283 97.3533 480.715 104.832 483.854 113.881C487.178 122.745 488.84 133.179 488.84 145.182ZM501.089 77.04H537.376L572.278 173.99H572.832L608.011 77.04H643.19L590.283 210H554.827L501.089 77.04Z" fill="#15171F"/>
<path d="M629.831 103.632V77.04H653.099V38.537H685.785V77.04H719.025V103.632H685.785V165.403C685.785 171.312 686.801 176.206 688.832 180.084C691.048 183.962 695.849 185.901 703.236 185.901C705.452 185.901 707.853 185.716 710.438 185.347C713.023 184.793 715.332 184.054 717.363 183.131L718.471 209.169C715.516 210.277 712.008 211.108 707.945 211.662C703.882 212.401 700.004 212.77 696.311 212.77C687.447 212.77 680.245 211.57 674.705 209.169C669.165 206.584 664.733 203.167 661.409 198.92C658.27 194.488 656.054 189.502 654.761 183.962C653.653 178.237 653.099 172.143 653.099 165.68V103.632H629.831ZM743.081 77.04H774.936V99.2H775.49C779.183 91.444 784.354 85.1653 791.002 80.364C797.65 75.5627 805.406 73.162 814.27 73.162C815.562 73.162 816.947 73.2543 818.425 73.439C819.902 73.439 821.195 73.6237 822.303 73.993V104.463C820.087 103.909 818.148 103.54 816.486 103.355C815.008 103.17 813.531 103.078 812.054 103.078C804.482 103.078 798.388 104.463 793.772 107.233C789.155 110.003 785.554 113.327 782.969 117.205C780.383 121.083 778.629 125.053 777.706 129.116C776.782 133.179 776.321 136.41 776.321 138.811V210H743.081V77.04ZM923.01 193.103H922.179C918.855 199.012 913.499 203.906 906.113 207.784C898.726 211.477 890.324 213.324 880.906 213.324C875.55 213.324 869.918 212.585 864.009 211.108C858.284 209.815 852.929 207.599 847.943 204.46C843.141 201.136 839.079 196.889 835.755 191.718C832.615 186.363 831.046 179.807 831.046 172.051C831.046 162.079 833.816 154.138 839.356 148.229C845.08 142.32 852.375 137.795 861.239 134.656C870.103 131.517 879.89 129.485 890.601 128.562C901.496 127.454 912.114 126.9 922.456 126.9V123.576C922.456 115.266 919.409 109.172 913.315 105.294C907.405 101.231 900.296 99.2 891.986 99.2C884.968 99.2 878.228 100.677 871.765 103.632C865.301 106.587 859.946 110.188 855.699 114.435L838.525 94.214C846.096 87.1967 854.775 81.9337 864.563 78.425C874.535 74.9163 884.599 73.162 894.756 73.162C906.574 73.162 916.269 74.824 923.841 78.148C931.597 81.472 937.691 85.8117 942.123 91.167C946.555 96.5223 949.602 102.524 951.264 109.172C953.11 115.82 954.034 122.468 954.034 129.116V210H923.01V193.103ZM922.456 149.337H914.977C909.621 149.337 903.989 149.614 898.08 150.168C892.17 150.537 886.723 151.553 881.737 153.215C876.751 154.692 872.596 156.908 869.272 159.863C865.948 162.633 864.286 166.511 864.286 171.497C864.286 174.636 864.932 177.314 866.225 179.53C867.702 181.561 869.549 183.223 871.765 184.516C873.981 185.809 876.474 186.732 879.244 187.286C882.014 187.84 884.784 188.117 887.554 188.117C899.003 188.117 907.682 185.07 913.592 178.976C919.501 172.882 922.456 164.572 922.456 154.046V149.337ZM1083.62 113.881C1081.03 110.188 1077.15 107.141 1071.98 104.74C1066.81 102.155 1061.55 100.862 1056.19 100.862C1050.1 100.862 1044.74 102.155 1040.13 104.74C1035.51 107.141 1031.63 110.372 1028.49 114.435C1025.54 118.498 1023.32 123.114 1021.84 128.285C1020.37 133.271 1019.63 138.349 1019.63 143.52C1019.63 148.691 1020.37 153.861 1021.84 159.032C1023.51 164.018 1025.91 168.542 1029.05 172.605C1032.19 176.668 1036.06 179.992 1040.68 182.577C1045.48 184.978 1051.02 186.178 1057.3 186.178C1062.47 186.178 1067.64 185.162 1072.81 183.131C1077.98 181.1 1082.14 178.145 1085.28 174.267L1106.05 195.319C1100.51 201.228 1093.4 205.845 1084.72 209.169C1076.23 212.308 1067 213.878 1057.02 213.878C1047.24 213.878 1037.91 212.308 1029.05 209.169C1020.37 206.03 1012.7 201.413 1006.06 195.319C999.592 189.225 994.421 181.838 990.543 173.159C986.85 164.48 985.003 154.6 985.003 143.52C985.003 132.809 986.85 123.114 990.543 114.435C994.421 105.756 999.592 98.369 1006.06 92.275C1012.52 86.181 1020 81.472 1028.49 78.148C1037.17 74.824 1046.41 73.162 1056.19 73.162C1065.98 73.162 1075.4 75.0087 1084.45 78.702C1093.68 82.3953 1100.97 87.4737 1106.33 93.937L1083.62 113.881ZM1128.57 0.587988H1161.81V132.994H1162.64L1213.05 77.04H1255.71L1198.09 137.149L1259.31 210H1215.27L1162.64 141.858H1161.81V210H1128.57V0.587988Z" fill="#15171F"/>
<path d="M106 248C47.4562 248 0 200.544 0 142C0 83.4562 47.4562 36 106 36C164.544 36 212 83.4562 212 142C212 200.544 164.544 248 106 248ZM106 226.8C128.49 226.8 150.06 217.866 165.963 201.963C181.866 186.06 190.8 164.49 190.8 142C190.8 119.51 181.866 97.9404 165.963 82.0373C150.06 66.1343 128.49 57.2 106 57.2C83.5096 57.2 61.9404 66.1343 46.0373 82.0373C30.1343 97.9404 21.2 119.51 21.2 142C21.2 164.49 30.1343 186.06 46.0373 201.963C61.9404 217.866 83.5096 226.8 106 226.8ZM142.528 120.461L84.4608 178.528C78.2763 174.881 73.119 169.724 69.4724 163.539L127.539 105.472C133.724 109.119 138.881 114.276 142.528 120.461Z" fill="url(#paint0_linear_2822_11)"/>
<defs>
<linearGradient id="paint0_linear_2822_11" x1="106" y1="36" x2="106" y2="248" gradientUnits="userSpaceOnUse">
<stop stop-color="#15171F"/>
<stop offset="1" stop-color="#15171F"/>
</linearGradient>
</defs>
</svg>
